HIERARCHY
ROOT Hips
{
 OFFSET 0.000000 0.000000 0.000000
 CHANNELS 6 Xposition Yposition Zposition Yrotation Xrotation Zrotation
 JOINT Chest
 {
  OFFSET 0.000000 9.585900 0.002600
  CHANNELS 3 Yrotation Xrotation Zrotation
  JOINT Chest2
  {
   OFFSET 0.000000 9.601200 -0.005300
   CHANNELS 3 Yrotation Xrotation Zrotation
   JOINT Chest3
   {
    OFFSET 0.000000 9.561800 0.000000
    CHANNELS 3 Yrotation Xrotation Zrotation
    JOINT Chest4
    {
     OFFSET 0.000000 9.552100 0.000000
     CHANNELS 3 Yrotation Xrotation Zrotation
     JOINT Neck
     {
      OFFSET 0.000000 14.453000 0.000000
      CHANNELS 3 Yrotation Xrotation Zrotation
      JOINT Head
      {
       OFFSET 0.000000 8.936500 -0.011300
       CHANNELS 3 Yrotation Xrotation Zrotation
       End Site
       {
        OFFSET 0.000000 17.073600 -0.006000
       }
      }
     }
     JOINT RightCollar
     {
      OFFSET -2.921100 9.558500 0.000000
      CHANNELS 3 Yrotation Xrotation Zrotation
      JOINT RightShoulder
      {
       OFFSET -13.519700 0.000000 0.000000
       CHANNELS 3 Yrotation Xrotation Zrotation
       JOINT RightElbow
       {
        OFFSET 0.000000 -29.696600 0.000000
        CHANNELS 3 Yrotation Xrotation Zrotation
        JOINT RightWrist
        {
         OFFSET 0.000000 -24.004700 0.000000
         CHANNELS 3 Yrotation Xrotation Zrotation
         End Site
         {
          OFFSET 0.000000 -17.728500 0.000000
         }
        }
       }
      }
     }
     JOINT LeftCollar
     {
      OFFSET 2.921100 9.558500 0.000000
      CHANNELS 3 Yrotation Xrotation Zrotation
      JOINT LeftShoulder
      {
       OFFSET 13.519700 0.000000 0.000000
       CHANNELS 3 Yrotation Xrotation Zrotation
       JOINT LeftElbow
       {
        OFFSET 0.000000 -29.696600 0.000000
        CHANNELS 3 Yrotation Xrotation Zrotation
        JOINT LeftWrist
        {
         OFFSET 0.000000 -24.004700 0.000000
         CHANNELS 3 Yrotation Xrotation Zrotation
         End Site
         {
          OFFSET 0.000000 -17.728500 0.000000
         }
        }
       }
      }
     }
    }
   }
  }
 }
 JOINT RightHip
 {
  OFFSET -7.771700 -0.012900 -0.001300
  CHANNELS 3 Yrotation Xrotation Zrotation
  JOINT RightKnee
  {
   OFFSET 0.000000 -40.869800 0.001200
   CHANNELS 3 Yrotation Xrotation Zrotation
   JOINT RightAnkle
   {
    OFFSET 0.000000 -39.717900 0.002100
    CHANNELS 3 Yrotation Xrotation Zrotation
    JOINT RightToe
    {
     OFFSET 0.000000 -4.965400 11.033500
     CHANNELS 3 Yrotation Xrotation Zrotation
     End Site
     {
      OFFSET 0.000000 -1.423100 5.872300
     }
    }
   }
  }
 }
 JOINT LeftHip
 {
  OFFSET 7.771700 -0.012900 -0.001300
  CHANNELS 3 Yrotation Xrotation Zrotation
  JOINT LeftKnee
  {
   OFFSET 0.000000 -40.869800 0.001200
   CHANNELS 3 Yrotation Xrotation Zrotation
   JOINT LeftAnkle
   {
    OFFSET 0.000000 -39.717900 0.002100
    CHANNELS 3 Yrotation Xrotation Zrotation
    JOINT LeftToe
    {
     OFFSET 0.000000 -4.965400 11.033500
     CHANNELS 3 Yrotation Xrotation Zrotation
     End Site
     {
      OFFSET 0.000000 -1.423100 5.872300
     }
    }
   }
  }
 }
}
MOTION
Frames: 15
Frame Time: 0.008333
0.000000 85.388000 0.000000 0.000000 -5.767877 0.000000 0.000000 11.653817 0.000000 0.000000 -5.885947 0.000000 0.000000 -0.000000 0.000000 0.000000 -0.000000 0.000000 0.000000 12.528835 0.000000 0.000000 0.711642 0.000000 0.000000 -0.000000 0.000000 0.000000 0.000000 -90.000000 0.000000 -2.309062 0.000000 0.000000 2.309062 0.000000 0.000000 -0.000000 0.000000 0.000000 -0.000000 90.000000 0.000000 -2.309062 0.000000 0.000000 2.309062 0.000000 0.000000 8.520406 0.000000 0.000000 1.905762 0.000000 -0.000000 -4.658285 0.000000 0.000000 -0.000000 0.000000 0.000000 8.520406 0.000000 0.000000 1.905762 0.000000 -0.000000 -4.658285 0.000000 0.000000 -0.000000 0.000000
-92.663089 57.654032 91.430239 178.332721 -29.606504 -0.641460 2.021483 19.953518 2.525827 0.224470 2.499877 0.290291 0.305198 4.087258 0.556959 1.683310 17.137687 2.431606 -5.907402 7.364099 2.476293 -12.959157 -21.551741 7.881668 4.442067 -2.782759 -0.685669 13.303549 -24.005396 -24.050272 147.245647 -54.875031 -121.444778 12.721749 -23.446166 -41.721910 -9.801048 -4.814490 -3.302542 4.485360 -23.964206 2.311055 -174.154003 -74.365998 145.487857 -6.725519 -2.294928 -7.502372 7.790101 -45.956608 -7.157844 -11.423957 69.935893 -13.992206 9.610167 19.335585 8.698582 -0.080287 -14.329982 1.500392 -5.907003 -43.376054 0.326278 28.080482 67.285434 25.399862 -16.061226 3.883805 -1.000585 0.064018 0.200701 -0.070389
-92.657453 57.654338 91.431509 178.312851 -29.609280 -0.626421 1.985299 19.950298 2.554838 0.203694 2.496578 0.308372 0.309106 4.089034 0.549116 1.644713 17.135892 2.456000 -6.085052 7.331533 2.649784 -13.400909 -21.562695 8.316564 4.478217 -2.724448 -0.775703 13.196091 -24.110156 -24.003198 147.022898 -54.691682 -122.538468 12.728388 -23.192235 -42.678617 -9.827059 -4.844854 -3.406337 5.162795 -24.282568 2.178675 -175.421881 -73.658812 147.133580 -6.443206 -2.392112 -7.560244 7.782457 -45.964159 -7.136709 -11.421866 69.939812 -14.010706 9.609655 19.349311 8.695622 -0.073689 -14.335745 1.499521 -5.912212 -43.374695 0.336398 28.063972 67.289536 25.375907 -16.062005 3.910345 -0.990624 0.073792 0.210189 -0.064602
-92.651197 57.655130 91.432392 178.293355 -29.616204 -0.608391 1.953125 19.951088 2.580881 0.185762 2.494256 0.326749 0.312502 4.091454 0.540781 1.612161 17.135488 2.480091 -6.266215 7.325765 2.815162 -13.840828 -21.523120 8.732168 4.485024 -2.669852 -0.865202 12.996902 -24.174187 -23.866689 147.105882 -54.845686 -123.991906 12.561269 -22.871723 -43.344294 -9.850411 -4.877934 -3.502197 5.886002 -24.568876 2.005423 -177.252524 -73.086404 149.323775 -6.200536 -2.515568 -7.573315 7.790714 -45.965066 -7.130840 -11.396607 69.947943 -13.994054 9.594092 19.357170 8.686978 -0.064766 -14.337242 1.498957 -5.946273 -43.373196 0.355977 28.088114 67.292848 25.374118 -16.051079 3.954370 -0.972382 0.077842 0.205102 -0.068031
-92.644328 57.656555 91.432709 178.273755 -29.627856 -0.588866 1.944964 19.959478 2.587952 0.183464 2.494312 0.328733 0.308758 4.091620 0.544007 1.597643 17.135453 2.492021 -6.463547 7.342464 3.022417 -14.277451 -21.435496 9.132736 4.440206 -2.628204 -0.901621 12.664444 -24.203418 -23.623505 147.647604 -55.306138 -125.908228 12.335629 -22.541895 -43.760260 -9.893294 -4.905098 -3.533272 6.656031 -24.823580 1.792496 -179.584949 -72.643925 151.987985 -5.994338 -2.638248 -7.513663 7.811274 -45.956230 -7.135958 -11.398943 69.950983 -13.997996 9.605077 19.354272 8.692318 -0.071597 -14.330608 1.493261 -5.945523 -43.364832 0.353577 28.089037 67.293039 25.369084 -16.044419 4.002612 -0.949263 0.086648 0.198881 -0.073965
-92.637427 57.658098 91.433433 178.258814 -29.636613 -0.568868 1.933074 19.964326 2.591838 0.181444 2.494284 0.330631 0.282875 4.081997 0.584169 1.570193 17.133299 2.516529 -6.639381 7.385764 3.152604 -14.708507 -21.304832 9.521617 4.400279 -2.569583 -0.997010 12.159932 -24.216565 -23.263455 148.687901 -55.940119 -128.257156 12.148343 -22.229420 -44.067590 -9.892519 -4.922264 -3.616627 7.474818 -25.048282 1.544793 177.696435 -72.313598 154.996787 -5.759153 -2.772931 -7.378298 7.832576 -45.949984 -7.145877 -11.406531 69.953849 -14.004455 9.607460 19.355194 8.690998 -0.073496 -14.328288 1.490469 -5.943299 -43.358682 0.346485 28.106068 67.290832 25.375615 -16.036776 4.042496 -0.923852 0.080556 0.201862 -0.076357
-92.630550 57.659448 91.435208 178.249541 -29.637224 -0.550445 1.903895 19.957442 2.606743 0.178213 2.493729 0.333642 0.279094 4.073870 0.598970 1.547777 17.129790 2.536856 -6.817249 7.448798 3.284806 -15.133101 -21.137776 9.899894 4.328080 -2.508301 -1.076984 11.465245 -24.238103 -22.782875 150.095398 -56.583496 -130.849812 11.973636 -21.887539 -44.384377 -9.886797 -4.927058 -3.675840 8.329938 -25.245248 1.266283 174.765601 -72.069676 158.181670 -5.439913 -2.948501 -7.101249 7.855481 -45.953412 -7.165144 -11.431741 69.957993 -14.019977 9.614043 19.359876 8.685099 -0.073475 -14.328826 1.487337 -5.942336 -43.360422 0.334863 28.087865 67.290431 25.355249 -16.018639 4.080691 -0.909192 0.070904 0.209797 -0.072132
-92.624162 57.661352 91.436770 178.247242 -29.637433 -0.532575 1.864540 19.930217 2.652647 0.173639 2.491529 0.338236 0.292854 4.087143 0.559246 1.537452 17.125593 2.550692 -7.001060 7.524946 3.436325 -15.552913 -20.942104 10.270221 4.216472 -2.446885 -1.125813 10.595282 -24.283079 -22.190948 151.657654 -57.155615 -133.475912 11.757712 -21.473144 -44.772865 -9.885525 -4.919562 -3.693169 9.191512 -25.414010 0.966751 171.753303 -71.878496 161.438329 -5.028401 -3.188631 -6.571146 7.875438 -45.956711 -7.189151 -11.461925 69.964177 -14.036607 9.610351 19.363070 8.666220 -0.068684 -14.324505 1.490947 -5.942312 -43.360717 0.316943 28.068053 67.287501 25.334694 -15.996011 4.107971 -0.906904 0.056638 0.218494 -0.062165
-92.617765 57.664520 91.436916 178.241704 -29.644901 -0.513828 1.856239 19.921241 2.664274 0.172963 2.489835 0.339811 0.291899 4.096051 0.545834 1.539549 17.107927 2.578762 -7.183623 7.611116 3.587009 -15.966419 -20.726721 10.634713 4.079255 -2.379294 -1.164152 9.585886 -24.353506 -21.509642 153.241482 -57.659937 -136.044747 11.481954 -21.012627 -45.255824 -9.887345 -4.901200 -3.718698 10.019105 -25.554297 0.693513 168.691104 -71.710781 164.763083 -4.537591 -3.510244 -5.774061 7.885061 -45.954046 -7.216668 -11.510954 69.972191 -14.057338 9.613210 19.363122 8.628184 -0.063618 -14.317509 1.494648 -5.938410 -43.354643 0.297266 28.007282 67.288844 25.286378 -15.983251 4.156495 -0.905849 0.072830 0.185297 -0.076197
-92.612003 57.669094 91.435320 178.224222 -29.661014 -0.486434 1.863150 19.919606 2.671070 0.172766 2.487576 0.340914 0.288092 4.106116 0.535518 1.547222 17.086755 2.599904 -7.361831 7.704078 3.736046 -16.367766 -20.498355 10.990888 3.925218 -2.303044 -1.195464 8.484438 -24.445679 -20.768583 154.809235 -58.123633 -138.566756 11.148346 -20.541409 -45.847745 -9.877543 -4.869803 -3.689304 10.811430 -25.652674 0.385093 165.559197 -71.552549 168.187985 -3.963599 -3.911859 -4.741748 7.901292 -45.938100 -7.234925 -11.531786 69.975113 -14.068918 9.616689 19.359237 8.608441 -0.061916 -14.302248 1.495103 -5.918491 -43.341375 0.273563 27.988589 67.288599 25.268000 -15.978484 4.224218 -0.872883 0.072633 0.163107 -0.091736
-92.605837 57.673716 91.434213 178.216330 -29.669887 -0.467785 1.865068 19.919448 2.668285 0.173667 2.480772 0.347430 0.293052 4.071066 0.570823 1.528851 17.122340 2.562954 -7.523396 7.787653 3.898168 -16.750948 -20.258491 11.335101 3.763890 -2.233709 -1.211566 7.348266 -24.554447 -19.993802 156.362166 -58.572188 -141.095275 10.738975 -20.081223 -46.543302 -9.860470 -4.845893 -3.636616 11.549726 -25.712589 0.103910 162.291116 -71.403403 171.775811 -3.283058 -4.387812 -3.436074 7.915206 -45.928293 -7.252861 -11.561488 69.977223 -14.083846 9.614550 19.357340 8.585961 -0.057249 -14.296416 1.497397 -5.906787 -43.331664 0.254480 27.980889 67.284576 25.258974 -15.968021 4.263943 -0.853123 0.069752 0.206813 -0.066499
-92.601682 57.678920 91.432365 178.211922 -29.678997 -0.440099 1.860925 19.919626 2.653603 0.172647 2.484961 0.341770 0.294610 4.063218 0.577056 1.528978 17.118314 2.566905 -7.676262 7.877669 4.056523 -17.111755 -20.002045 11.667068 3.582542 -2.152898 -1.231973 6.232836 -24.671122 -19.199888 157.914584 -59.015013 -143.685354 10.208702 -19.661645 -47.294644 -9.857834 -4.826983 -3.625251 12.221495 -25.734713 -0.090830 158.748194 -71.259742 175.651276 -2.468438 -4.950485 -1.779123 7.904945 -45.919417 -7.266090 -11.548642 69.982056 -14.079996 9.607492 19.357321 8.568069 -0.057726 -14.281496 1.497594 -5.883172 -43.320557 0.216112 27.965964 67.277133 25.245852 -15.961721 4.305360 -0.833207 0.065148 0.198695 -0.072730
-92.595229 57.683747 91.431292 178.212635 -29.678832 -0.429949 1.862254 19.876540 2.686303 0.168496 2.505422 0.322626 0.290995 4.072307 0.566490 1.535689 17.095388 2.585338 -7.828728 7.989604 4.196971 -17.446786 -19.720544 11.987650 3.375704 -2.045976 -1.269112 5.163595 -24.786270 -18.393027 159.519472 -59.456170 -146.399444 9.554118 -19.294195 -48.051491 -9.862432 -4.791427 -3.630088 12.824626 -25.717303 -0.245629 154.766595 -71.107737 179.965890 -1.513628 -5.639238 0.282828 7.866047 -45.920101 -7.248157 -11.518340 69.981657 -14.074230 9.612436 19.358053 8.566139 -0.062614 -14.281673 1.492252 -5.875464 -43.318822 0.198520 27.911943 67.278085 25.206009 -15.947948 4.336616 -0.830321 0.070267 0.178857 -0.081393
-92.590339 57.689661 91.428006 178.198708 -29.689395 -0.403554 1.868309 19.874827 2.676086 0.170927 2.492852 0.333420 0.290665 4.065491 0.567156 1.541333 17.030827 2.604776 -7.980933 8.161025 4.316961 -17.752069 -19.408938 12.294523 3.155025 -1.878731 -1.311901 4.133882 -24.895289 -17.572991 161.256414 -59.903978 -149.300544 8.832148 -18.968142 -48.782826 -9.860362 -4.695218 -3.595886 13.362676 -25.653473 -0.429979 150.184065 -70.922361 -175.127912 -0.470665 -6.500836 2.741304 7.841880 -45.909361 -7.240202 -11.491508 69.982242 -14.069007 9.611822 19.358280 8.550171 -0.064693 -14.273724 1.493294 -5.845201 -43.306999 0.167174 27.909053 67.275581 25.205768 -15.945978 4.375891 -0.807178 0.069688 0.176212 -0.083245
-92.584264 57.695717 91.424007 178.188955 -29.701651 -0.386480 1.868284 19.840699 2.683919 0.174396 2.503945 0.330720 0.290492 4.056534 0.567099 1.535076 16.977950 2.606907 -8.109967 8.332815 4.448690 -18.023292 -19.069027 12.583085 2.945392 -1.713936 -1.335620 3.130134 -24.999622 -16.734074 163.163576 -60.364281 -152.393790 8.090901 -18.695429 -49.466302 -9.860244 -4.600795 -3.602380 13.795789 -25.570389 -0.527102 144.933527 -70.659454 -169.559224 0.590074 -7.553171 5.455870 7.810045 -45.898318 -7.223400 -11.481840 69.984145 -14.074306 9.609024 19.360274 8.527299 -0.061615 -14.267615 1.495525 -5.826521 -43.293860 0.144481 27.915701 67.273468 25.214962 -15.939786 4.417175 -0.774654 0.054940 0.170333 -0.094261
